<svg width="621" height="621" viewBox="0 0 621 621" xmlns="http://www.w3.org/2000/svg"><title>sprite</title><g fill-rule="nonzero" fill="none"><path d="M621 310.516C621 139.0243 481.9677.008 310.5.008 139.0085.008 0 139.0244 0 310.516 0 481.9914 139.0085 621 310.5 621 481.9677 621 621 481.9915 621 310.516" fill="#008B47"/><path d="M457.0082 232.6282l-.0159-.008c1.9585-2.874 3.4553-6.202 4.2674-10.1589l.1831-2.1576-28.0166 9.4265 3.8852-42.4748-13.9486 12.8897s-6.9823 26.8782-32.1806 46.559l-2.078 13.9089 13.0172-4.538-12.1652 82.8955 31.7983-8.6065 4.2993-34.6645c2.3009-18.5663 5.0954-46.2406 5.5571-49.9666 13.5108-4.4027 21.4564-7.1017 25.3973-13.1047M500.2314 325.818c-.8757.1035-1.5923.215-2.2372.3583l-2.2372 6.8549 1.6083-.207.7961-2.4602c.2548-.0159.5175-.008.7803-.0318.0796-.016.3025-.0478.39-.0796l.828 2.285 1.8551-.207-1.2022-2.5239c.9634-.5652 1.5605-1.1066 1.8232-1.9426.398-1.2181-.223-2.3088-2.4044-2.0461m.9395 2.0143c-.2548.7802-.9952 1.1624-1.8949 1.2579-.2229.0318-.4617.0318-.6847.0398l.629-2.0143c.2866-.0716.5892-.0955.8678-.1274.812-.0796 1.2977.1911 1.0828.844" fill="#FFFFFE"/><path d="M507.0863 242.0547c0-4.6018-1.441-8.4154-4.1081-11.0666-2.6433-2.6671-6.4887-4.1161-11.1462-4.1161-.82 0-1.672.0478-2.5397.1433-10.8118 1.1226-23.8926 7.667-34.7521 19.3147l-.016-.008c-9.4742 9.928-15.4454 21.958-18.7414 34.5452-1.68 6.425-2.3805 11.9184-2.3885 16.6236 0 10.1988 3.3439 16.6635 7.229 20.5727 2.078 2.1018 4.0366 3.3995 6.847 4.4982 3.0413 1.266 6.2817 1.8391 9.5857 1.8391 14.4422-.0238 30.1424-10.8276 38.5737-22.2923.008-.008.0159-.008.0238-.0238l-.008-.008c4.2436-5.4377 8.0333-11.8388 11.0268-19.1953l.1354-.3503-3.4633-3.8295-.414.7245c-10.334 18.3912-21.4484 24.6887-28.7173 24.6649-.5812 0-1.1305-.0319-1.664-.1115-5.5571-.7882-9.2513-6.3533-9.2831-15.2384 0-2.3884.2707-4.984.8519-7.7784 4.5779-24.617 11.3133-36.5275 16.2893-40.357 1.3296-1.043 2.5238-1.5287 3.4712-1.5207.6688 0 1.25.215 1.8073.7006.812.6927 1.4171 2.1894 1.4092 4.3231.008 1.0828-.199 2.3168-.4936 3.7021-2.4363 11.9025-8.4154 22.4994-17.2845 31.3605-.7245.6768-3.1687 2.6433-3.2165 2.683 0 0-.3264.223-.6608.5017-.3264.3662-.7404.5254-.836 1.2579-.0238.1592.0637.422.231.5653.1671.1751.406.215.5493.215.3582-.024.5652-.1354.8757-.215 9.96-3.0732 26.695-11.7831 33.128-21.8067 3.3837-4.363 6.003-9.4105 7.1574-15.1906.3663-1.7993.5414-3.511.5414-5.1272M499.9607 322.904c-3.7737-.3423-7.0778 2.4283-7.444 6.1862-.3424 3.7658 2.4203 7.0858 6.194 7.4281 3.758.3264 7.0938-2.4362 7.4282-6.202.3423-3.7579-2.4203-7.0778-6.1782-7.4122m-1.1624 12.6429c-3.2244-.2946-5.589-3.1368-5.3023-6.3613.2945-3.2403 3.1527-5.6049 6.3772-5.3183 3.2244.2787 5.589 3.121 5.3103 6.3693-.3105 3.2164-3.1607 5.589-6.3852 5.3103M204.1737 358.8027c0-15.9152-9.6415-26.727-20.9389-35.819-6.7593-5.4298-10.2863-11.4805-10.2783-16.7192 0-1.4013.2468-2.7627.7722-4.0525.7245-1.8072 1.7118-3.3518 2.898-4.6813 2.4124-2.1178 8.3198-5.4935 14.3467-5.9155.5892-.0477 1.1704-.0637 1.7356-.0796.0956-.008.199-.008.2628-.008 11.4089 0 19.4898 7.0062 23.367 11.3452l.7644.844 1.3216-6.5842 4.538-22.6506-.5015-.1433c-5.788-1.7038-12.2448-2.5955-18.9086-2.5955-13.5665 0-28.0485 3.6464-39.7122 11.4726-.0318.0239-.0318.0239-.1035.0796-10.6764 6.9425-19.5456 17.9772-22.2366 34.37-.3662 2.2292-.5573 4.3788-.5573 6.4568-.008 10.6525 4.9202 19.3226 14.8403 25.7317 8.2402 5.3183 17.0696 12.404 17.0377 22.3241 0 3.3598-.9872 7.0938-3.4075 11.2656-1.887 3.296-5.9871 7.2848-9.6414 9.1637-.0478.008-.1434.0478-.215.0956-4.5301 2.492-9.8882 3.8852-15.3419 3.8852-7.2211 0-14.6015-2.4362-20.5646-7.9615l-.6847-.621-10.549 36.7266.5811.1273c4.2196.9475 8.71 1.2022 12.9136 1.3774.9713.0478 1.9665.0637 2.9617.0637 14.4502 0 30.5246-4.4346 43.7805-13.447.008-.016.024-.016.0319-.024 0 0 .0239 0 .0318-.008a.2921.2921 0 0 0 .1354-.0795c.0398-.0319.0159-.024.0796-.0637.0557-.0478.1353-.1035.2388-.191 3.1846-2.2134 6.1941-4.6815 8.9886-7.4362l-.0239-.0159c8.0093-7.6908 14.49-17.3641 18.7096-28.964 2.301-6.3534 3.328-12.0698 3.328-17.2686" fill="#FFFFFE"/><path d="M283.9801 334.7827c.7882-3.3677 1.1863-6.7355 1.1863-9.9838 0-6.8628-1.7754-13.224-5.5492-17.9055-3.7738-4.6893-9.5459-7.6192-17.3164-7.6192-3.6782 0-7.8023.645-12.3881 2.07l-44.6722 15.6604 1.3057.5891c4.9202 2.1815 6.3851 7.0938 6.401 13.678 0 4.2116-.621 9.0204-1.2977 14.0202l-17.8975 97.3617 30.9704-21.8783 15.9868-90.5386c1.1783-6.0906 3.2005-10.0236 5.4138-12.2847 2.3327-1.9267 4.148-2.3088 5.5333-2.3168.1353 0 .2627 0 .3742.008 3.296.1751 5.9313 2.9776 6.4886 7.3644.1035.836.2787 2.667.2787 5.2626 0 5.1192-.6768 13.2002-3.9012 22.5231-4.8724 14.084-9.0682 22.8815-14.3626 30.3654 0 .0159 0 .0159-.0239.0159-.0637.1035-1.8073 2.2212-3.5668 4.339-.8598 1.0589-1.7276 2.1257-2.3725 2.906-.3264.39-.5971.7165-.7802.9474-.0956.1194-.1752.207-.223.2627-.0238.0319-.0477.0478-.0557.0637a.4518.4518 0 0 0-.0955.1433c-.6449.7086-1.8869 1.863-2.8423 2.8821-.2866.3583-.5414.3583-.6449.9872 0 .1433.0319.2468.0717.3424.0398.2309.4458.4936.6608.4458.3503-.0159.4856-.1194.7404-.215 16.13-6.0268 32.2204-15.6842 43.7726-36.1851l-.024-.008c5.0238-9.0124 7.476-17.4835 8.8294-23.3034" fill="#FFFFFE"/><path d="M349.2488 266.3135c-16.2415 2.1098-25.3893 11.361-34.9432 29.8318-.7324-2.5158-4.745-9.4105-12.5394-12.9056l-15.923 5.573 1.2658 1.1067c3.2005 4.0923 4.554 10.7959 4.546 18.7654 0 4.6575-.4538 9.737-1.2101 14.9756-.3424 2.0063-2.8423 16.8387-5.2706 31.1535-2.4123 14.307-4.745 28.1281-4.745 28.1281l-.5016 2.914 31.464-16.4486 8.479-54.2579c2.3168-15.0393 14.076-19.7605 23.8926-19.7605l5.4855-29.0755M340.1567 356.5893l.8997-.3184 30.3573-11.3611 15.0712-94.5672-30.8032 14.0442-15.525 92.2025" fill="#FFFFFE"/><path d="M570.476 182.98c-37.037 15.0314-80.2443 22.0455-103.1417-7.9615-10.1748-13.7337-15.6683-34.7999-17.0695-63.2146-8.0411 14.9756-16.6396 28.6774-25.8113 41.0974l1.4251 8.2243c6.4568-8.686 12.0697-17.396 16.8387-25.859 1.5764 13.7256 3.7976 24.7762 10.8356 37.7217 10.3261 20.2303 40.0784 42.4589 107.2897 18.009.4936-.9315 1.1704-.422 0 0-52.3949 103.1815-31.2092 144.3188-29.5453 160.831-202.1275 5.5492-287.5628 82.9035-348.15 129.4785-11.6796-11.4725-61.6065-52.0206-126.5487-57.0125 26.4243-32.2363 73.907-111.4695 69.536-187.9879 1.9427.629 3.8853 1.2181 5.796 1.863 60.4759 20.31 111.9632 22.348 155.051 13.3436-4.8486-3.0732-9.0602-6.6559-12.4518-10.6287-46.4397 4.1719-100.0686-5.2068-161.9696-28.6217-2.1894-.828-4.3868-1.672-6.5921-2.5238C121.493 336.98 72.9595 390.6886 48.1116 428.2352c57.2196 1.6162 116.8833 43.47 136.3652 66.1445 103.4522-99.79 222.6444-140.0116 383.3959-115.3229-52.785-76.9005-20.1268-155.6003 2.6034-196.0768" fill="#FFFFFE"/><path d="M412.129 159.0397c-7.9376 23.2875-23.7731 46.1053-51.0971 61.049-27.316 14.9439-55.07 15.963-78.9626 10.0953-1.3853-.3583-3.4155.7404-1.5843 3.1368 14.4104 18.8052 55.699 31.042 93.787 10.963 37.443-21.2413 49.4331-62.6015 41.3601-84.8858-1.027-2.8264-3.0493-1.7197-3.503-.3583" fill="#6BB64A"/><path d="M414.7245 138.674c-7.2132-2.1097-7.9854 5.4617-20.2223-.398v.008c-21.0742-10.3262-51.527-8.8135-75.9929 4.0603-24.0359 13.654-41.7344 38.494-44.4095 61.7895h-.008c-1.6718 13.479-8.455 10.0316-10.5649 17.2447-1.4808 5.0317 2.5557 9.745 7.452 10.167 2.7308.2308 4.2833-2.4363.199-3.6465-2.9298-1.425-3.2482-4.1877 1.059-3.1607 31.9496 7.6272 57.7689 5.366 85.8731-9.9997 28.1042-15.3817 43.9238-35.8986 54.7356-66.9088 1.449-4.1718 3.6225-2.4282 3.2403.8121-1.1862 4.0843 1.887 4.2276 3.1767 1.7914 2.2929-4.347.4936-10.2863-4.5381-11.7592" fill="#F8CD24"/></g></svg>